<?xml version="1.0" encoding="utf-8"?>
<!-- Generator: Adobe Illustrator 16.0.0, SVG Export Plug-In . SVG Version: 6.00 Build 0)  -->
<!DOCTYPE svg PUBLIC "-//W3C//DTD SVG 1.1//EN" "http://www.w3.org/Graphics/SVG/1.1/DTD/svg11.dtd">
<svg version="1.1" id="Capa_1" xmlns="http://www.w3.org/2000/svg" xmlns:xlink="http://www.w3.org/1999/xlink" x="0px" y="0px"
	 width="923.152px" height="923.152px" viewBox="0 0 923.152 923.152" enable-background="new 0 0 923.152 923.152"
	 xml:space="preserve">
<g>
	<g>
		<path fill="#FFFFFF" d="M28.543,898.923c-19.766,16.963-14.832,27.49,10.878,23.312c91.877-14.93,267.75-48.025,359.799-95.016
			c78.606-40.127,106.491,14.492,79.999,56.439c-9.812,15.537-3.264,24.322,14.453,19.449
			c101.449-27.893,316.051-110.891,374.076-323.178c2.646-9.688-1.834-22.586-9.854-28.633l-3.322-2.508
			c-6.67,7.953-13.691,15.65-21.1,23.057c-32.367,32.369-70.068,57.785-112.055,75.543c-43.484,18.395-89.658,27.721-137.24,27.721
			s-93.756-9.326-137.239-27.721c-41.986-17.758-79.687-43.174-112.055-75.543c-32.369-32.365-57.785-70.066-75.543-112.054
			c-18.392-43.483-27.718-89.657-27.718-137.24c0-47.582,9.326-93.756,27.718-137.24c9.037-21.367,20.069-41.617,32.98-60.626
			l-2.871-2.166c-8.851-6.676-22.778-6.019-30.967,1.454C211.8,166.582,74.808,320.625,42.488,683.763
			c-1.592,17.889,9.228,24.295,24.204,14.389c19.859-13.141,46.736-23.535,66.734-3.361
			C162.822,724.445,100.919,836.814,28.543,898.923z"/>
		<path fill="#FFFFFF" d="M584.179,645.111c98.812,0,187.229-44.447,246.396-114.418c47.504-56.178,76.16-128.806,76.16-208.138
			C906.736,144.413,762.322,0,584.179,0C472.589,0,374.24,56.67,316.326,142.797c-34.54,51.366-54.703,113.207-54.703,179.759
			C261.625,500.697,406.037,645.111,584.179,645.111z M874.921,350.992c0.135,0.124,0.277,0.235,0.42,0.35
			c-2.85,29.344-10.07,57.858-21.584,85.081c-3.73,8.823-7.877,17.419-12.416,25.774c-0.199,0.016-0.4,0.027-0.602,0.061
			L756.472,474.8l-32.811,4.883l-53.992-70.36l-1.422-1.853l35.191-108.312l84.855-27.881L874.921,350.992z M599.179,112.495
			l102.496-57.399c0.174-0.097,0.336-0.205,0.5-0.314c33.178,14.633,63.064,35.096,88.873,60.904
			c3.74,3.741,7.357,7.576,10.873,11.486c-0.043,0.164-0.09,0.326-0.123,0.494L779.191,242.69l-87.744,28.831l-92.27-67.036
			L599.179,112.495L599.179,112.495z M647.642,429.896l52.822,68.832l-45.617,107.279c-0.078,0.189-0.145,0.377-0.209,0.568
			c-22.885,5.662-46.449,8.535-70.459,8.535s-47.574-2.873-70.461-8.535c-0.062-0.191-0.129-0.381-0.207-0.568l-45.615-107.279
			l52.82-68.832H647.642L647.642,429.896z M377.312,115.687c25.809-25.809,55.696-46.271,88.871-60.904
			c0.164,0.108,0.328,0.217,0.5,0.314l102.496,57.397v91.99l-87.137,63.309l-5.131,3.727l-87.743-28.831l-10.373-52.774
			l-12.234-62.249c-0.033-0.167-0.08-0.33-0.123-0.494C369.953,123.263,373.57,119.428,377.312,115.687z M327.019,462.195
			c-4.54-8.354-8.684-16.95-12.416-25.773c-11.514-27.224-18.735-55.736-21.584-85.081c0.142-0.114,0.285-0.225,0.42-0.35
			l86.626-79.715l84.854,27.881l35.191,108.312l-55.414,72.212l-117.078-17.426C327.419,462.224,327.219,462.208,327.019,462.195z"
			/>
	</g>
</g>
</svg>
