<?xml version="1.0" encoding="utf-8"?>
<!-- Generator: Adobe Illustrator 16.0.0, SVG Export Plug-In . SVG Version: 6.00 Build 0)  -->
<!DOCTYPE svg PUBLIC "-//W3C//DTD SVG 1.1//EN" "http://www.w3.org/Graphics/SVG/1.1/DTD/svg11.dtd">
<svg version="1.1" xmlns="http://www.w3.org/2000/svg" xmlns:xlink="http://www.w3.org/1999/xlink" x="0px" y="0px" width="250px"
	 height="250px" viewBox="0 0 250 250" enable-background="new 0 0 250 250" xml:space="preserve">
<g id="Layer_1" display="none">
	<g display="inline">
		<g>
			<path fill="#FFFFFF" d="M133.429,74.258c4.159-6.949,10.743-16.889,19.053-26.431h0.009c7.042-8.095,20.83-18.483,20.83-18.483
				c2.075-1.566,1.848-3.747-0.509-4.842l-16.662-7.791c-2.356-1.104-5.559-0.296-7.12,1.779c0,0-12.324,17.684-26.833,55.325
				c-44.858-20.295-87.494,8.123-87.494,57.546c0,51.614,39.715,130.021,93.418,106.352c56.562,24.481,93.446-54.737,93.446-106.352
				C221.566,81.513,183.236,52.291,133.429,74.258z"/>
			<path fill="#FFFFFF" d="M123.384,57.54c2.592-0.217,4.884-2.514,5.092-5.101c0,0,1.663-20.184-12.402-34.268
				C101.966,4.087,81.815,5.769,81.815,5.769c-2.592,0.213-4.884,2.51-5.098,5.097c0,0-1.69,20.197,12.394,34.282
				C103.187,59.222,123.384,57.54,123.384,57.54z"/>
		</g>
	</g>
</g>
<g id="Layer_2">
	<g>
		<g>
			<path fill="#222222" d="M12.378,238.892c-5.122,4.396-3.843,7.123,2.818,6.04c23.805-3.868,69.374-12.443,93.223-24.618
				c20.367-10.396,27.591,3.755,20.728,14.623c-2.543,4.026-0.846,6.302,3.744,5.039c26.285-7.227,81.889-28.731,96.923-83.734
				c0.686-2.51-0.476-5.852-2.554-7.419l-0.86-0.649c-1.729,2.061-3.548,4.055-5.467,5.974
				c-8.387,8.387-18.154,14.973-29.033,19.573c-11.267,4.767-23.23,7.183-35.559,7.183s-24.292-2.416-35.559-7.183
				c-10.878-4.601-20.646-11.187-29.033-19.573c-8.387-8.386-14.972-18.153-19.573-29.033c-4.765-11.267-7.182-23.23-7.182-35.559
				c0-12.328,2.417-24.292,7.182-35.559c2.342-5.536,5.2-10.783,8.545-15.708l-0.744-0.561c-2.293-1.73-5.902-1.56-8.023,0.376
				c-12.095,11.04-47.589,50.952-55.963,145.041c-0.413,4.635,2.391,6.294,6.271,3.728c5.146-3.404,12.109-6.098,17.291-0.871
				C47.169,193.685,31.13,222.799,12.378,238.892z"/>
			<path fill="#222222" d="M156.342,173.129c25.603,0,48.511-11.516,63.841-29.646c12.309-14.555,19.733-33.373,19.733-53.928
				c0-46.156-37.418-83.573-83.574-83.573c-28.912,0-54.395,14.683-69.4,36.999C77.993,56.29,72.769,72.312,72.769,89.556
				C72.769,135.712,110.186,173.129,156.342,173.129z M231.673,96.924c0.035,0.032,0.072,0.061,0.108,0.09
				c-0.738,7.603-2.608,14.991-5.592,22.044c-0.967,2.286-2.041,4.513-3.217,6.678c-0.052,0.004-0.104,0.007-0.156,0.016
				l-21.834,3.25l-8.501,1.266l-13.989-18.23l-0.368-0.48l9.118-28.063l21.985-7.224L231.673,96.924z M160.229,35.13l26.557-14.872
				c0.045-0.025,0.087-0.053,0.13-0.082c8.596,3.792,16.34,9.093,23.026,15.78c0.969,0.969,1.906,1.963,2.817,2.976
				c-0.012,0.043-0.023,0.085-0.032,0.128l-5.857,29.802l-22.734,7.47l-23.906-17.369V35.13L160.229,35.13z M172.785,117.368
				l13.687,17.834l-11.819,27.796c-0.021,0.049-0.038,0.098-0.055,0.146c-5.929,1.468-12.034,2.212-18.256,2.212
				c-6.221,0-12.326-0.744-18.256-2.212c-0.017-0.049-0.033-0.099-0.054-0.146l-11.818-27.796l13.686-17.834H172.785
				L172.785,117.368z M102.743,35.957c6.687-6.687,14.431-11.989,23.026-15.78c0.043,0.028,0.085,0.056,0.13,0.081l26.557,14.872
				v23.834l-22.577,16.403l-1.329,0.965l-22.734-7.47l-2.688-13.674l-3.169-16.128c-0.009-0.043-0.021-0.085-0.032-0.128
				C100.836,37.919,101.773,36.926,102.743,35.957z M89.712,125.736c-1.176-2.164-2.25-4.392-3.217-6.678
				c-2.983-7.053-4.854-14.441-5.593-22.044c0.037-0.03,0.074-0.058,0.109-0.091l22.445-20.654l21.986,7.224l9.118,28.063
				l-14.358,18.71l-30.335-4.515C89.816,125.744,89.764,125.74,89.712,125.736z"/>
		</g>
	</g>
</g>
</svg>
